<svg xmlns="http://www.w3.org/2000/svg" viewBox="0 0 279 165" width="279" height="165">
  <rect width="100%" height="100%" fill="#2D2D2D"/>
  <!-- Dahle small script: gimoza -->
  <g fill="#C9A7FF">
    <path d="M29.38 24.27L43.13 24.27Q48.32 24.27 51.97 27.92Q55.63 31.57 55.63 36.77L55.63 36.77L55.63 39.27Q55.63 42 54.49 44.44Q53.36 46.88 51.41 48.64L51.41 48.64Q53.40 50.40 54.51 52.84Q55.63 55.28 55.63 58.02L55.63 58.02L55.63 59.27Q55.63 64.46 51.97 68.11Q48.32 71.77 43.13 71.77L43.13 71.77L29.38 71.77Q26.80 71.77 24.96 69.93Q23.13 68.09 23.13 65.52L23.13 65.52L23.13 63.02L29.38 63.02L29.38 65.52L43.13 65.52Q45.70 65.52 47.54 63.68Q49.38 61.84 49.38 59.27L49.38 59.27L49.38 58.02Q49.38 55.44 47.54 53.60Q45.70 51.77 43.13 51.77L43.13 51.77L29.38 51.77L29.38 45.52L43.13 45.52Q45.70 45.52 47.54 43.68Q49.38 41.84 49.38 39.27L49.38 39.27L49.38 36.77Q49.38 34.19 47.54 32.35Q45.70 30.52 43.13 30.52L43.13 30.52L29.38 30.52L29.38 34.27L23.13 34.27L23.13 30.52Q23.13 27.94 24.96 26.10Q26.80 24.27 29.38 24.27L29.38 24.27Z"/>
    <path d="M90.63 38.64L90.63 70.52Q90.63 75.28 88.28 79.30Q85.94 83.33 81.91 85.67Q77.89 88.02 73.13 88.02L73.13 88.02L73.13 81.77Q77.77 81.77 81.07 78.46Q84.38 75.16 84.38 70.52L84.38 70.52L84.38 38.64Q84.38 35.28 81.99 32.90Q79.61 30.52 76.25 30.52Q72.89 30.52 70.51 32.90Q68.13 35.28 68.13 38.64L68.13 38.64L68.13 71.77L61.88 71.77L61.88 15.52Q61.88 12.94 63.71 11.10Q65.55 9.27 68.13 9.27L68.13 9.27L91.88 9.27L91.88 15.52L68.13 15.52L68.13 26.77Q71.80 24.27 76.25 24.27L76.25 24.27Q82.19 24.27 86.41 28.48Q90.63 32.70 90.63 38.64L90.63 38.64Z"/>
    <path d="M101.78 12.92Q105.43 9.27 110.63 9.27Q115.82 9.27 119.47 12.92Q123.13 16.57 123.13 21.77L123.13 21.77L123.13 71.77L116.88 71.77L116.88 39.27L98.13 39.27L98.13 33.02L116.88 33.02L116.88 21.77Q116.88 19.19 115.04 17.35Q113.20 15.52 110.63 15.52Q108.05 15.52 106.21 17.35Q104.38 19.19 104.38 21.77L104.38 21.77L104.38 24.27L98.13 24.27L98.13 21.77Q98.13 16.57 101.78 12.92Z"/>
    <path d="M156.97 34.17Q153.32 30.52 148.13 30.52Q142.93 30.52 139.28 34.17Q135.63 37.82 135.63 43.02L135.63 43.02L135.63 53.02Q135.63 58.21 139.28 61.86Q142.93 65.52 148.13 65.52Q153.32 65.52 156.97 61.86Q160.63 58.21 160.63 53.02L160.63 53.02L160.63 43.02Q160.63 37.82 156.97 34.17ZM140.84 25.75Q144.30 24.27 148.13 24.27Q151.95 24.27 155.41 25.75Q158.87 27.23 161.39 29.75Q163.91 32.27 165.39 35.73Q166.88 39.19 166.88 43.02L166.88 43.02L166.88 53.02Q166.88 56.84 165.39 60.30Q163.91 63.76 161.39 66.28Q158.87 68.80 155.41 70.28Q151.95 71.77 148.13 71.77Q144.30 71.77 140.84 70.28Q137.38 68.80 134.86 66.28Q132.34 63.76 130.86 60.30Q129.38 56.84 129.38 53.02L129.38 53.02L129.38 43.02Q129.38 39.19 130.86 35.73Q132.34 32.27 134.86 29.75Q137.38 27.23 140.84 25.75Z"/>
    <path d="M173.13 24.27L200.63 24.27Q204.77 24.27 207.70 27.20Q210.63 30.13 210.63 34.27L210.63 34.27L210.63 59.27Q210.63 64.97 206.60 68.99Q202.58 73.02 196.88 73.02L196.88 73.02L196.88 66.77Q200 66.77 202.19 64.58Q204.38 62.39 204.38 59.27L204.38 59.27L204.38 34.27Q204.38 32.70 203.28 31.61Q202.19 30.52 200.63 30.52L200.63 30.52L173.13 30.52L173.13 24.27ZM185.63 35.52L185.63 88.02L179.38 88.02L179.38 35.52L185.63 35.52Z"/>
    <path d="M223.13 43.02L223.13 53.02Q223.13 58.21 226.78 61.86Q230.43 65.52 235.63 65.52L235.63 65.52L240.63 65.52L240.63 71.77L235.63 71.77Q231.80 71.77 228.34 70.28Q224.88 68.80 222.36 66.28Q219.84 63.76 218.36 60.30Q216.88 56.84 216.88 53.02L216.88 53.02L216.88 43.02Q216.88 39.19 218.36 35.73Q219.84 32.27 222.36 29.75Q224.88 27.23 228.34 25.75Q231.80 24.27 235.63 24.27L235.63 24.27L236.88 24.27Q240.70 24.27 244.16 25.75Q247.62 27.23 250.14 29.75Q252.66 32.27 254.14 35.73Q255.63 39.19 255.63 43.02L255.63 43.02L255.63 88.02L249.38 88.02L249.38 43.02Q249.38 37.82 245.72 34.17Q242.07 30.52 236.88 30.52L236.88 30.52L235.63 30.52Q230.43 30.52 226.78 34.17Q223.13 37.82 223.13 43.02L223.13 43.02Z"/>
  </g>
  <!-- Layered lines motif (moza = layered) -->
  <line x1="30" y1="90" x2="249" y2="90" stroke="#8A63D2" stroke-width="0.8" opacity="0.6"/>
  <line x1="40" y1="94" x2="239" y2="94" stroke="#8A63D2" stroke-width="0.6" opacity="0.4"/>
  <line x1="50" y1="98" x2="229" y2="98" stroke="#8A63D2" stroke-width="0.4" opacity="0.25"/>
  <!-- Latin "gimoza" -->
  <g fill="#A87BFF">
    <path d="M107.23 105.48Q106.20 104.44 104.75 104.44Q103.30 104.44 102.26 105.48Q101.23 106.51 101.23 107.96L101.23 107.96L101.23 114.05Q101.23 115.50 102.26 116.54Q103.30 117.57 104.75 117.57Q106.20 117.57 107.23 116.54Q108.26 115.50 108.26 114.05L108.26 114.05L108.26 107.96Q108.26 106.51 107.23 105.48ZM110.61 102.10L110.61 120.85Q110.61 122.99 109.10 124.50Q107.59 126.01 105.45 126.01L105.45 126.01L104.04 126.01Q101.90 126.01 100.40 124.50Q98.89 122.99 98.89 120.85L98.89 120.85L101.23 120.85Q101.23 122.02 102.05 122.84Q102.87 123.66 104.04 123.66L104.04 123.66L105.45 123.66Q106.62 123.66 107.44 122.84Q108.26 122.02 108.26 120.85L108.26 120.85L108.26 118.74Q106.69 119.91 104.75 119.91L104.75 119.91Q102.31 119.91 100.60 118.20Q98.89 116.48 98.89 114.05L98.89 114.05L98.89 107.96Q98.89 105.53 100.60 103.81Q102.31 102.10 104.75 102.10L104.75 102.10Q106.71 102.10 108.26 103.27L108.26 103.27L108.26 102.10L110.61 102.10Z"/>
    <path d="M115.88 97.88L115.88 100.22L113.54 100.22L113.54 97.88L115.88 97.88ZM115.88 102.10L115.88 119.91L113.54 119.91L113.54 102.10L115.88 102.10Z"/>
    <path d="M121.15 101.63L121.15 102.67Q122.18 102.10 123.36 102.10L123.36 102.10Q124.13 102.10 124.79 102.41Q125.46 102.73 125.94 103.27L125.94 103.27Q127.25 102.10 128.99 102.10L128.99 102.10Q130.41 102.10 131.41 103.10Q132.40 104.11 132.40 105.51L132.40 105.51L132.40 119.91L130.06 119.91L130.06 105.51Q130.06 105.07 129.74 104.76Q129.43 104.44 128.99 104.44L128.99 104.44Q128.08 104.44 127.43 105.09Q126.78 105.73 126.78 106.66L126.78 106.66L126.78 119.91L124.43 119.91L124.43 105.51Q124.43 105.07 124.12 104.76Q123.80 104.44 123.36 104.44L123.36 104.44Q122.46 104.44 121.80 105.09Q121.15 105.73 121.15 106.66L121.15 106.66L121.15 119.91L118.81 119.91L118.81 101.63L121.15 101.63Z"/>
    <path d="M143.67 105.48Q142.64 104.44 141.19 104.44Q139.74 104.44 138.71 105.48Q137.68 106.51 137.68 107.96L137.68 107.96L137.68 114.05Q137.68 115.50 138.71 116.54Q139.74 117.57 141.19 117.57Q142.64 117.57 143.67 116.54Q144.71 115.50 144.71 114.05L144.71 114.05L144.71 107.96Q144.71 106.51 143.67 105.48ZM137.05 103.81Q138.76 102.10 141.19 102.10Q143.62 102.10 145.34 103.81Q147.05 105.53 147.05 107.96L147.05 107.96L147.05 114.05Q147.05 116.48 145.34 118.20Q143.62 119.91 141.19 119.91Q138.76 119.91 137.05 118.20Q135.33 116.48 135.33 114.05L135.33 114.05L135.33 107.96Q135.33 105.53 137.05 103.81Z"/>
    <path d="M161.58 102.10L161.58 104.75L151.97 117.57L161.58 117.57L161.58 119.91L149.39 119.91L149.39 117.26L159.00 104.44L149.39 104.44L149.39 102.10L161.58 102.10Z"/>
    <path d="M174.24 111.47L169.32 111.47Q168.06 111.47 167.16 112.37Q166.27 113.26 166.27 114.52Q166.27 115.78 167.16 116.67Q168.06 117.57 169.32 117.57L169.32 117.57L170.25 117.57Q171.85 117.57 173.00 116.47Q174.15 115.37 174.24 113.79L174.24 113.79L174.24 113.58L174.24 111.47ZM176.58 106.79L176.58 117.10Q176.58 117.29 176.72 117.43Q176.86 117.57 177.05 117.57Q177.24 117.57 177.38 117.43Q177.52 117.29 177.52 117.10L177.52 117.10L177.52 116.16L179.86 116.16L179.86 117.10Q179.86 118.27 179.04 119.09Q178.22 119.91 177.05 119.91L177.05 119.91Q176.22 119.91 175.53 119.47Q174.84 119.02 174.50 118.27L174.50 118.27Q173.64 119.05 172.55 119.48Q171.46 119.91 170.25 119.91L170.25 119.91L169.32 119.91Q167.09 119.91 165.51 118.33Q163.93 116.75 163.93 114.52Q163.93 112.29 165.51 110.71Q167.09 109.13 169.32 109.13L169.32 109.13L174.24 109.13L174.24 106.79Q174.24 105.82 173.55 105.13Q172.86 104.44 171.89 104.44L171.89 104.44L169.08 104.44Q168.12 104.44 167.43 105.13Q166.74 105.82 166.74 106.79L166.74 106.79L166.74 107.26L164.39 107.26L164.39 106.79Q164.39 104.84 165.76 103.47Q167.13 102.10 169.08 102.10L169.08 102.10L171.89 102.10Q173.84 102.10 175.21 103.47Q176.58 104.84 176.58 106.79L176.58 106.79Z"/>
  </g>
  <!-- Japanese subtitle -->
  <text x="139.5" y="148" text-anchor="middle" fill="#DCCBFF" font-family="'Noto Sans CJK JP', 'Meiryo UI', 'Yu Gothic', sans-serif" font-size="13" letter-spacing="3">時空地歴編纂機</text>
</svg>
