<svg xmlns="http://www.w3.org/2000/svg" viewBox="0 0 256 256" width="256" height="256">
  <!-- Background: rounded dark square matching brand -->
  <rect width="256" height="256" fill="#2D2D2D" rx="32"/>

  <!-- Subtle layered strata (moza = layered) behind the glyph -->
  <g opacity="0.6">
    <line x1="44" y1="196" x2="212" y2="196" stroke="#8A63D2" stroke-width="3" stroke-linecap="round"/>
    <line x1="58" y1="208" x2="198" y2="208" stroke="#8A63D2" stroke-width="2.2" stroke-linecap="round" opacity="0.75"/>
    <line x1="74" y1="220" x2="182" y2="220" stroke="#8A63D2" stroke-width="1.6" stroke-linecap="round" opacity="0.5"/>
  </g>

  <!-- Latin 'g' glyph from the logo, centered and scaled -->
  <g fill="#C9A7FF" transform="translate(-660.8 -731.0) scale(7.53)">
    <path d="M107.23 105.48Q106.20 104.44 104.75 104.44Q103.30 104.44 102.26 105.48Q101.23 106.51 101.23 107.96L101.23 107.96L101.23 114.05Q101.23 115.50 102.26 116.54Q103.30 117.57 104.75 117.57Q106.20 117.57 107.23 116.54Q108.26 115.50 108.26 114.05L108.26 114.05L108.26 107.96Q108.26 106.51 107.23 105.48ZM110.61 102.10L110.61 120.85Q110.61 122.99 109.10 124.50Q107.59 126.01 105.45 126.01L105.45 126.01L104.04 126.01Q101.90 126.01 100.40 124.50Q98.89 122.99 98.89 120.85L98.89 120.85L101.23 120.85Q101.23 122.02 102.05 122.84Q102.87 123.66 104.04 123.66L104.04 123.66L105.45 123.66Q106.62 123.66 107.44 122.84Q108.26 122.02 108.26 120.85L108.26 120.85L108.26 118.74Q106.69 119.91 104.75 119.91L104.75 119.91Q102.31 119.91 100.60 118.20Q98.89 116.48 98.89 114.05L98.89 114.05L98.89 107.96Q98.89 105.53 100.60 103.81Q102.31 102.10 104.75 102.10L104.75 102.10Q106.71 102.10 108.26 103.27L108.26 103.27L108.26 102.10L110.61 102.10Z"/>
  </g>
</svg>
