<svg xmlns="http://www.w3.org/2000/svg" viewBox="0 0 256 256" width="256" height="256">
  <!-- Background: rounded dark square matching brand -->
  <rect width="256" height="256" fill="#2D2D2D" rx="32"/>

  <!-- Subtle layered strata (moza = layered) behind the glyph -->
  <g opacity="0.6">
    <line x1="44" y1="196" x2="212" y2="196" stroke="#8A63D2" stroke-width="3" stroke-linecap="round"/>
    <line x1="58" y1="208" x2="198" y2="208" stroke="#8A63D2" stroke-width="2.2" stroke-linecap="round" opacity="0.75"/>
    <line x1="74" y1="220" x2="182" y2="220" stroke="#8A63D2" stroke-width="1.6" stroke-linecap="round" opacity="0.5"/>
  </g>

  <!-- derle-style 'g' glyph from the logo, centered and scaled -->
  <g fill="#C9A7FF" transform="translate(-4.7 -33.8) scale(3.37)">
    <path d="M29.38 24.27L43.13 24.27Q48.32 24.27 51.97 27.92Q55.63 31.57 55.63 36.77L55.63 36.77L55.63 39.27Q55.63 42 54.49 44.44Q53.36 46.88 51.41 48.64L51.41 48.64Q53.40 50.40 54.51 52.84Q55.63 55.28 55.63 58.02L55.63 58.02L55.63 59.27Q55.63 64.46 51.97 68.11Q48.32 71.77 43.13 71.77L43.13 71.77L29.38 71.77Q26.80 71.77 24.96 69.93Q23.13 68.09 23.13 65.52L23.13 65.52L23.13 63.02L29.38 63.02L29.38 65.52L43.13 65.52Q45.70 65.52 47.54 63.68Q49.38 61.84 49.38 59.27L49.38 59.27L49.38 58.02Q49.38 55.44 47.54 53.60Q45.70 51.77 43.13 51.77L43.13 51.77L29.38 51.77L29.38 45.52L43.13 45.52Q45.70 45.52 47.54 43.68Q49.38 41.84 49.38 39.27L49.38 39.27L49.38 36.77Q49.38 34.19 47.54 32.35Q45.70 30.52 43.13 30.52L43.13 30.52L29.38 30.52L29.38 34.27L23.13 34.27L23.13 30.52Q23.13 27.94 24.96 26.10Q26.80 24.27 29.38 24.27L29.38 24.27Z"/>
  </g>
</svg>
